HIERARCHY
ROOT Hips
{
	OFFSET -0.001795 -0.223333 0.028219
	CHANNELS 6 Xposition Yposition Zposition Zrotation Yrotation Xrotation 
	JOINT LeftUpLeg
	{
		OFFSET 0.069520 -0.091406 -0.006815
		CHANNELS 3 Zrotation Yrotation Xrotation
		JOINT LeftLeg
		{
			OFFSET 0.034277 -0.375199 -0.004496
			CHANNELS 3 Zrotation Yrotation Xrotation
			JOINT LeftFoot
			{
				OFFSET -0.013596 -0.397961 -0.043693
				CHANNELS 3 Zrotation Yrotation Xrotation
				JOINT LeftToe
				{
					OFFSET 0.026358 -0.055791 0.119288
					CHANNELS 3 Zrotation Yrotation Xrotation
					End Site
					{
						OFFSET 0.000000 0.000000 0.000000
					}
				}
			}
		}
	}
	JOINT RightUpLeg
	{
		OFFSET -0.067670 -0.090522 -0.004320
		CHANNELS 3 Zrotation Yrotation Xrotation
		JOINT RightLeg
		{
			OFFSET -0.038290 -0.382569 -0.008850
			CHANNELS 3 Zrotation Yrotation Xrotation
			JOINT RightFoot
			{
				OFFSET 0.015774 -0.398415 -0.042312
				CHANNELS 3 Zrotation Yrotation Xrotation
				JOINT RightToe
				{
					OFFSET -0.025372 -0.048144 0.123348
					CHANNELS 3 Zrotation Yrotation Xrotation
					End Site
					{
						OFFSET 0.000000 0.000000 0.000000
					}
				}
			}
		}
	}
	JOINT Spine
	{
		OFFSET -0.002533 0.108963 -0.026696
		CHANNELS 3 Zrotation Yrotation Xrotation
		JOINT Spine1
		{
			OFFSET 0.005487 0.135180 0.001092
			CHANNELS 3 Zrotation Yrotation Xrotation
			JOINT Spine2
			{
				OFFSET 0.001457 0.052922 0.025425
				CHANNELS 3 Zrotation Yrotation Xrotation
				JOINT Neck
				{
					OFFSET -0.002778 0.213870 -0.042857
					CHANNELS 3 Zrotation Yrotation Xrotation
					JOINT Head
					{
						OFFSET 0.005152 0.064970 0.051349
						CHANNELS 3 Zrotation Yrotation Xrotation
						End Site
						{
							OFFSET 0.000000 0.000000 0.000000
						}
					}
				}
				JOINT LeftShoulder
				{
					OFFSET 0.078845 0.121749 -0.034090
					CHANNELS 3 Zrotation Yrotation Xrotation
					JOINT LeftArm
					{
						OFFSET 0.090977 0.030469 -0.008868
						CHANNELS 3 Zrotation Yrotation Xrotation
						JOINT LeftForeArm
						{
							OFFSET 0.259612 -0.012772 -0.027456
							CHANNELS 3 Zrotation Yrotation Xrotation
							JOINT LeftHand
							{
								OFFSET 0.249234 0.008986 -0.001171
								CHANNELS 3 Zrotation Yrotation Xrotation
								End Site
								{
									OFFSET 0.000000 0.000000 0.000000
								}
							}
						}
					}
				}
				JOINT RightShoulder
				{
					OFFSET -0.081759 0.118833 -0.038615
					CHANNELS 3 Zrotation Yrotation Xrotation
					JOINT RightArm
					{
						OFFSET -0.096012 0.032551 -0.009143
						CHANNELS 3 Zrotation Yrotation Xrotation
						JOINT RightForeArm
						{
							OFFSET -0.253742 -0.013329 -0.021401
							CHANNELS 3 Zrotation Yrotation Xrotation
							JOINT RightHand
							{
								OFFSET -0.255298 0.007772 -0.005559
								CHANNELS 3 Zrotation Yrotation Xrotation
								End Site
								{
									OFFSET 0.000000 0.000000 0.000000
								}
							}
						}
					}
				}
			}
		}
	}
}
MOTION
Frames: 9
Frame Time: 0.050000
0.004524 0.949717 -0.111843 -6.263026 3.238185 11.781394 8.277072 -0.538158 -6.915052 8.070802 0.181576 -9.652772 4.633984 13.099702 16.446076 0.000000 0.000000 0.000000 -1.588747 1.637615 -18.748552 -0.465715 0.197929 3.571399 2.625781 0.942910 11.270993 0.000000 0.000000 0.000000 -2.471824 0.043492 3.517198 2.342258 -0.974700 -1.949309 2.467526 -3.910550 1.869016 -0.346648 0.788672 -10.312257 0.000000 0.000000 0.000000 -3.697605 -7.415547 2.704378 -44.442610 -25.015947 4.191840 -78.262582 -82.537129 77.090808 0.000000 0.000000 0.000000 5.137287 18.106229 6.532443 41.588195 40.902544 10.131257 65.884597 80.314056 59.769127 0.000000 0.000000 0.000000 
0.004383 0.950084 -0.114544 -6.423322 2.957038 11.821098 8.389459 -0.531012 -6.856037 8.240704 0.190288 -9.766069 4.745733 13.247050 16.608299 0.000000 0.000000 0.000000 -1.370295 1.695739 -19.055209 -0.478807 0.203581 3.649115 2.882874 1.332873 11.461573 0.000000 0.000000 0.000000 -2.595027 0.054225 3.501875 2.228787 -0.919580 -2.044651 2.744451 -3.981687 1.829408 -0.666990 0.982919 -10.443894 0.000000 0.000000 0.000000 -3.806294 -7.487777 2.755590 -44.478835 -25.202050 4.282555 -68.656615 -83.325914 68.660683 0.000000 0.000000 0.000000 5.317174 18.534070 6.683824 41.736426 41.668811 10.455943 60.591367 79.847898 54.386432 0.000000 0.000000 0.000000 
0.004786 0.950288 -0.116751 -6.496938 2.823149 11.891676 8.412593 -0.530089 -6.943374 8.435893 0.190056 -9.795792 4.516450 12.934716 16.819592 0.000000 0.000000 0.000000 -1.340773 1.702660 -19.049415 -0.501865 0.192314 3.291797 3.312525 2.057947 11.719088 0.000000 0.000000 0.000000 -2.691985 0.066492 3.306557 2.191677 -0.902034 -2.070408 2.789102 -4.094323 1.843155 -0.780575 1.055284 -10.732217 0.000000 0.000000 0.000000 -3.623213 -7.337287 2.706958 -44.545636 -26.058374 4.638712 -55.579181 -83.920420 56.807893 0.000000 0.000000 0.000000 5.461158 18.673645 6.724113 41.981377 42.256013 10.749181 56.741624 79.783080 50.776087 0.000000 0.000000 0.000000 
0.005480 0.950507 -0.118477 -6.584330 2.829718 11.774784 8.330744 -0.521965 -6.616712 8.459854 0.210514 -10.003467 4.424087 12.809482 16.862281 0.000000 0.000000 0.000000 -1.297094 1.701361 -18.979059 -0.668373 0.209037 3.157251 3.773358 2.824033 12.049006 0.000000 0.000000 0.000000 -2.875541 0.084574 3.023236 2.236331 -0.923398 -2.051079 3.070589 -4.542265 2.046904 -1.053229 1.200892 -10.906354 0.000000 0.000000 0.000000 -3.453834 -7.576104 2.834693 -43.990171 -26.864690 4.861555 -45.407410 -84.866274 48.206133 0.000000 0.000000 0.000000 5.737034 18.937855 6.781866 41.392378 42.423185 10.565751 54.972228 80.190614 49.310148 0.000000 0.000000 0.000000 
0.006364 0.950261 -0.119805 -6.482571 2.998650 11.595917 8.200085 -0.519287 -6.434254 8.312372 0.228492 -10.162802 4.207115 12.524872 16.878144 0.000000 0.000000 0.000000 -1.337261 1.670219 -18.722382 -0.860543 0.227616 3.000441 3.865227 2.976463 12.166520 0.000000 0.000000 0.000000 -3.011889 0.092049 3.056113 2.339515 -0.958620 -2.221835 3.055627 -4.818624 2.177376 -1.439196 1.437089 -10.902537 0.000000 0.000000 0.000000 -3.149883 -7.798568 2.926159 -43.352396 -28.153275 5.247218 -35.237076 -85.529273 39.175662 0.000000 0.000000 0.000000 5.889195 18.729456 6.678405 40.684664 42.237126 10.239264 58.762396 81.257277 53.551709 0.000000 0.000000 0.000000 
0.007288 0.950006 -0.120870 -6.288597 3.120604 11.359659 7.932085 -0.511746 -6.132713 8.180149 0.246398 -10.336289 4.120778 12.445097 17.017375 0.000000 0.000000 0.000000 -1.545338 1.610626 -18.336934 -1.057187 0.243266 2.774998 4.153821 3.453918 12.407462 0.000000 0.000000 0.000000 -3.196639 0.106508 2.824357 2.571833 -1.068535 -2.113957 2.986977 -5.115886 2.274559 -1.810324 1.664946 -11.012516 0.000000 0.000000 0.000000 -2.999940 -7.860769 2.956931 -42.191742 -28.867512 5.303261 -29.910287 -86.168515 34.621401 0.000000 0.000000 0.000000 6.142194 18.448343 6.543339 40.155916 42.137034 10.009587 64.719297 82.214236 59.817719 0.000000 0.000000 0.000000 
0.008180 0.949631 -0.121715 -6.043203 3.162237 11.177829 7.634484 -0.501916 -5.794306 8.081243 0.259437 -10.463547 4.065640 12.362641 16.947533 0.000000 0.000000 0.000000 -1.742360 1.563725 -18.054935 -1.169390 0.262104 2.862227 4.055671 3.364767 12.205376 0.000000 0.000000 0.000000 -3.305759 0.113316 2.745058 2.606791 -1.071823 -2.312323 2.974989 -5.142885 2.659104 -2.058485 1.822906 -10.878759 0.000000 0.000000 0.000000 -2.899387 -8.100606 3.046381 -40.721399 -29.335789 5.164694 -34.247348 -86.868068 39.174094 0.000000 0.000000 0.000000 6.479923 17.667591 6.235949 39.821739 41.753176 9.736677 78.139848 82.949735 73.357664 0.000000 0.000000 0.000000 
0.008945 0.949405 -0.122296 -5.800434 3.488262 11.030828 7.344324 -0.502314 -5.683590 8.016624 0.253354 -10.402925 3.772402 11.961047 16.786091 0.000000 0.000000 0.000000 -2.027300 1.500202 -17.756576 -1.280849 0.275866 2.842071 4.005954 3.278308 12.287828 0.000000 0.000000 0.000000 -3.468213 0.126855 2.411925 2.790414 -1.173947 -1.990426 2.953445 -5.507862 2.616847 -2.602485 2.165604 -10.992550 0.000000 0.000000 0.000000 -3.197859 -7.797933 2.947386 -39.165654 -29.706675 4.995479 -39.958693 -86.738429 44.627928 0.000000 0.000000 0.000000 6.967208 17.503794 6.154896 39.444329 41.312639 9.466448 86.646596 83.337029 81.990038 0.000000 0.000000 0.000000 
0.009508 0.949223 -0.122586 -5.593616 3.683490 10.899818 7.201177 -0.493814 -5.365789 7.951470 0.274831 -10.622510 3.650222 11.832494 16.897244 0.000000 0.000000 0.000000 -2.234339 1.440630 -17.331573 -1.281172 0.271779 2.754553 3.865950 3.130063 12.079303 0.000000 0.000000 0.000000 -3.541328 0.133464 2.081137 2.971161 -1.261958 -1.893772 2.891640 -5.394905 2.657691 -2.729642 2.261173 -10.669400 0.000000 0.000000 0.000000 -3.238699 -7.504133 2.812537 -37.810739 -29.211042 4.563903 -50.910693 -86.706568 55.017391 0.000000 0.000000 0.000000 7.679243 16.689807 5.862387 39.552832 40.239540 9.156200 93.450502 83.178443 88.699557 0.000000 0.000000 0.000000 
